<svg width="1234" height="229" viewBox="0 0 1234 229" fill="none" xmlns="http://www.w3.org/2000/svg">
<circle cx="613.505" cy="102.447" r="90.3947" fill="#DC951D" stroke="#FFCA43" stroke-width="24.1053"/>
<circle cx="613.505" cy="102.447" r="25.3105" fill="#FEF785" stroke="#FBB337" stroke-width="12.0526"/>
<path d="M158.584 184L119.225 126.459C129.506 122.623 137.792 116.638 144.083 108.506C150.528 100.22 153.75 89.5556 153.75 76.513V76.0526C153.75 59.3273 148.38 46.2846 137.639 36.9246C127.051 27.5645 112.167 22.8845 92.9866 22.8845H19.3339V184H54.7793V132.443H82.6292L117.154 184H158.584ZM117.844 78.3543C117.844 85.2592 115.466 90.7832 110.709 94.9262C106.106 99.0691 99.4313 101.141 90.685 101.141H54.7793V54.8775H89.9945C98.7408 54.8775 105.569 56.7955 110.479 60.6316C115.389 64.4677 117.844 70.2218 117.844 77.894V78.3543ZM308.342 184V152.467H220.879V118.633H296.834V87.1005H220.879V54.4171H307.191V22.8845H185.664V184H308.342ZM481.408 157.991L458.852 135.205C452.561 141.036 446.193 145.639 439.748 149.015C433.457 152.391 425.708 154.079 416.501 154.079C409.597 154.079 403.229 152.774 397.398 150.166C391.72 147.404 386.81 143.721 382.667 139.118C378.678 134.515 375.532 129.144 373.23 123.006C370.929 116.869 369.778 110.347 369.778 103.442V102.982C369.778 96.077 370.929 89.6324 373.23 83.6481C375.532 77.5103 378.754 72.1398 382.897 67.5365C387.04 62.9332 391.951 59.3273 397.628 56.7188C403.459 54.1102 409.75 52.806 416.501 52.806C424.634 52.806 431.923 54.4171 438.367 57.6394C444.965 60.8618 451.41 65.3116 457.701 70.989L480.257 44.9804C476.575 41.2977 472.585 37.922 468.289 34.8531C463.992 31.7842 459.312 29.1757 454.249 27.0275C449.185 24.8793 443.507 23.1914 437.216 21.9639C431.079 20.7363 424.25 20.1226 416.732 20.1226C404.303 20.1226 392.948 22.3475 382.667 26.7973C372.387 31.0937 363.564 37.078 356.198 44.7502C348.833 52.2689 343.079 61.0919 338.936 71.2192C334.793 81.193 332.721 91.934 332.721 103.442V103.903C332.721 115.411 334.793 126.229 338.936 136.356C343.079 146.483 348.833 155.306 356.198 162.825C363.564 170.19 372.31 176.021 382.437 180.317C392.564 184.614 403.536 186.762 415.351 186.762C423.176 186.762 430.235 186.071 436.526 184.69C442.817 183.463 448.571 181.622 453.788 179.167C459.159 176.558 464.069 173.489 468.519 169.96C472.969 166.431 477.265 162.441 481.408 157.991Z" fill="#465267"/>
<path d="M892.615 184.437L853.257 126.896C863.538 123.06 871.824 117.075 878.115 108.943C884.56 100.657 887.782 89.9925 887.782 76.9499V76.4895C887.782 59.7642 882.411 46.7215 871.67 37.3615C861.083 28.0014 846.199 23.3214 827.018 23.3214H753.365V184.437H788.811V132.88H816.661L851.186 184.437H892.615ZM851.876 78.7912C851.876 85.6961 849.498 91.2201 844.741 95.363C840.138 99.506 833.463 101.578 824.717 101.578H788.811V55.3143H824.026C832.772 55.3143 839.601 57.2324 844.511 61.0685C849.421 64.9046 851.876 70.6587 851.876 78.3308V78.7912ZM1068.15 103.879V103.419C1068.15 92.064 1066.08 81.5532 1061.94 71.8862C1057.79 62.0659 1051.89 53.5497 1044.21 46.3379C1036.7 39.1261 1027.64 33.5254 1017.06 29.5359C1006.62 25.3929 995.113 23.3214 982.531 23.3214H919.696V184.437H982.531C995.113 184.437 1006.62 182.365 1017.06 178.222C1027.64 174.079 1036.7 168.402 1044.21 161.19C1051.89 153.978 1057.79 145.462 1061.94 135.642C1066.08 125.822 1068.15 115.234 1068.15 103.879ZM1031.1 104.339C1031.1 111.551 1029.87 118.073 1027.41 123.904C1025.11 129.734 1021.81 134.798 1017.52 139.094C1013.37 143.391 1008.31 146.69 1002.32 148.991C996.341 151.293 989.742 152.444 982.531 152.444H955.141V55.3143H982.531C989.742 55.3143 996.341 56.5419 1002.32 58.997C1008.31 61.2986 1013.37 64.5977 1017.52 68.8941C1021.81 73.1905 1025.11 78.3308 1027.41 84.3151C1029.87 90.2994 1031.1 96.8208 1031.1 103.879V104.339ZM1216.2 136.793V136.332C1216.2 129.274 1215.05 123.213 1212.75 118.149C1210.6 113.086 1207.3 108.713 1202.85 105.03C1198.55 101.194 1193.18 97.9716 1186.74 95.363C1180.45 92.6011 1173.24 90.146 1165.1 87.9978C1158.2 86.1565 1152.44 84.5453 1147.84 83.1643C1143.39 81.7833 1139.86 80.3256 1137.25 78.7912C1134.65 77.2567 1132.8 75.5689 1131.73 73.7275C1130.81 71.7328 1130.35 69.4311 1130.35 66.8226V66.3623C1130.35 62.3727 1132.04 59.0737 1135.41 56.4652C1138.94 53.7032 1144.16 52.3222 1151.06 52.3222C1157.97 52.3222 1164.87 53.7799 1171.78 56.6953C1178.68 59.4573 1185.74 63.2934 1192.95 68.2036L1211.37 41.5044C1203.08 34.9064 1193.95 29.8428 1183.98 26.3136C1174.16 22.7844 1163.34 21.0198 1151.52 21.0198C1143.24 21.0198 1135.64 22.1706 1128.74 24.4722C1121.83 26.7739 1115.85 30.0729 1110.78 34.3693C1105.87 38.6658 1102.04 43.8061 1099.28 49.7904C1096.51 55.6212 1095.13 62.2193 1095.13 69.5846V70.0449C1095.13 78.024 1096.36 84.6987 1098.82 90.0693C1101.42 95.4398 1105.03 99.9663 1109.63 103.649C1114.24 107.178 1119.84 110.17 1126.44 112.625C1133.03 115.081 1140.4 117.305 1148.53 119.3C1155.28 120.988 1160.73 122.599 1164.87 124.134C1169.17 125.668 1172.47 127.203 1174.77 128.737C1177.23 130.271 1178.84 131.959 1179.6 133.801C1180.52 135.488 1180.98 137.483 1180.98 139.785V140.245C1180.98 145.002 1178.91 148.761 1174.77 151.523C1170.78 154.132 1165.1 155.436 1157.74 155.436C1148.53 155.436 1140.02 153.672 1132.19 150.142C1124.52 146.613 1117 141.856 1109.63 135.872L1088.69 160.96C1098.36 169.706 1109.1 176.228 1120.91 180.524C1132.73 184.667 1144.77 186.739 1157.05 186.739C1165.79 186.739 1173.77 185.664 1180.98 183.516C1188.2 181.215 1194.41 177.992 1199.63 173.849C1204.85 169.553 1208.91 164.336 1211.83 158.198C1214.74 151.907 1216.2 144.772 1216.2 136.793Z" fill="#465267"/>
</svg>
