<svg width="27" height="27" viewBox="0 0 27 27" fill="none" xmlns="http://www.w3.org/2000/svg">
<path d="M13.5 16.875C15.364 16.875 16.875 15.364 16.875 13.5C16.875 11.636 15.364 10.125 13.5 10.125C11.636 10.125 10.125 11.636 10.125 13.5C10.125 15.364 11.636 16.875 13.5 16.875Z" fill="#6E6E6E"/>
<path d="M13.5 1.6875C7.00313 1.6875 1.6875 7.00313 1.6875 13.5C1.6875 19.9969 7.00313 25.3125 13.5 25.3125C19.9969 25.3125 25.3125 19.9969 25.3125 13.5C25.3125 7.00313 19.9969 1.6875 13.5 1.6875ZM13.5 18.5625C10.7156 18.5625 8.4375 16.2844 8.4375 13.5C8.4375 10.7156 10.7156 8.4375 13.5 8.4375C16.2844 8.4375 18.5625 10.7156 18.5625 13.5C18.5625 16.2844 16.2844 18.5625 13.5 18.5625Z" fill="#6E6E6E"/>
</svg>
