<svg width="28" height="28" viewBox="0 0 28 28" fill="none" xmlns="http://www.w3.org/2000/svg">
<path d="M19.8686 8.13137C19.7537 8.01646 19.6092 7.93579 19.4511 7.89839C19.293 7.86099 19.1276 7.86834 18.9735 7.91962L11.0984 10.5446C10.9695 10.5876 10.8523 10.6601 10.7561 10.7562C10.66 10.8523 10.5876 10.9695 10.5446 11.0985L7.91957 18.9735C7.86816 19.1277 7.8607 19.2931 7.89803 19.4513C7.93536 19.6095 8.016 19.7541 8.13092 19.869C8.24583 19.984 8.39049 20.0646 8.54866 20.1019C8.70683 20.1393 8.87228 20.1318 9.02645 20.0804L16.9015 17.4554C17.0304 17.4124 17.1476 17.3399 17.2438 17.2438C17.3399 17.1477 17.4123 17.0305 17.4553 16.9015L20.0803 9.0265C20.1316 8.87235 20.139 8.70696 20.1016 8.54887C20.0642 8.39077 19.9835 8.24621 19.8686 8.13137V8.13137ZM10.1333 17.8675L12.0671 12.068L15.9337 15.9346L10.1333 17.8675Z" fill="#6F6F6F"/>
<path d="M13.75 25.75C11.3766 25.75 9.05655 25.0462 7.08316 23.7276C5.10977 22.4091 3.5717 20.5349 2.66345 18.3422C1.7552 16.1495 1.51756 13.7367 1.98058 11.4089C2.4436 9.08114 3.58649 6.94295 5.26472 5.26472C6.94295 3.58649 9.08115 2.4436 11.4089 1.98057C13.7367 1.51755 16.1495 1.75519 18.3422 2.66344C20.5349 3.57169 22.4091 5.10976 23.7276 7.08315C25.0462 9.05654 25.75 11.3766 25.75 13.75C25.7464 16.9315 24.4809 19.9816 22.2313 22.2313C19.9816 24.4809 16.9315 25.7464 13.75 25.75V25.75ZM13.75 3.46428C11.7157 3.46428 9.72704 4.06753 8.03557 5.19774C6.34409 6.32795 5.02575 7.93436 4.24724 9.81382C3.46874 11.6933 3.26505 13.7614 3.66193 15.7566C4.0588 17.7519 5.03842 19.5846 6.47691 21.0231C7.91539 22.4616 9.74813 23.4412 11.7434 23.8381C13.7386 24.2349 15.8067 24.0313 17.6862 23.2528C19.5656 22.4743 21.1721 21.1559 22.3023 19.4644C23.4325 17.773 24.0357 15.7843 24.0357 13.75C24.0325 11.023 22.9478 8.40866 21.0196 6.48041C19.0913 4.55215 16.477 3.46746 13.75 3.46428V3.46428Z" fill="#6F6F6F"/>
</svg>
