<svg width="28" height="28" viewBox="0 0 28 28" fill="none" xmlns="http://www.w3.org/2000/svg">
<path d="M21.7777 23.3333H12.4444V17.1111H10.8888V23.3333H6.22218V17.1111H4.66663V23.3333C4.66663 23.7459 4.83051 24.1416 5.12224 24.4333C5.41396 24.725 5.80962 24.8889 6.22218 24.8889H21.7777C22.1903 24.8889 22.586 24.725 22.8777 24.4333C23.1694 24.1416 23.3333 23.7459 23.3333 23.3333V17.1111H21.7777V23.3333Z" fill="#465267"/>
<path d="M26.2811 10.3211L23.1078 3.97444C22.979 3.71528 22.7805 3.49718 22.5345 3.34466C22.2886 3.19215 22.005 3.11126 21.7156 3.11111H6.28444C5.99504 3.11126 5.71143 3.19215 5.46548 3.34466C5.21953 3.49718 5.021 3.71528 4.89222 3.97444L1.71889 10.3211C1.61054 10.5385 1.5546 10.7782 1.55555 11.0211V13.4167C1.55484 13.7801 1.68143 14.1324 1.91333 14.4122C2.25607 14.8051 2.67936 15.1196 3.15446 15.3343C3.62955 15.5491 4.1453 15.659 4.66667 15.6567C5.51738 15.658 6.34214 15.3638 7 14.8244C7.65785 15.3641 8.48244 15.6591 9.33333 15.6591C10.1842 15.6591 11.0088 15.3641 11.6667 14.8244C12.3245 15.3641 13.1491 15.6591 14 15.6591C14.8509 15.6591 15.6755 15.3641 16.3333 14.8244C16.9912 15.3641 17.8158 15.6591 18.6667 15.6591C19.5176 15.6591 20.3421 15.3641 21 14.8244C21.7343 15.4274 22.6739 15.7221 23.621 15.6467C24.5682 15.5713 25.4492 15.1316 26.0789 14.42C26.3136 14.1412 26.443 13.7889 26.4444 13.4244V11.0211C26.4454 10.7782 26.3895 10.5385 26.2811 10.3211ZM11.6667 11.2V12.3822L11.0289 13.2222C10.8331 13.4891 10.5772 13.7061 10.282 13.8556C9.98674 14.0052 9.66042 14.0832 9.32944 14.0832C8.99847 14.0832 8.67215 14.0052 8.3769 13.8556C8.08166 13.7061 7.82578 13.4891 7.63 13.2222L7 12.3511V11.2L9.01444 4.66667H12.4444L11.6667 11.2ZM21 12.3511L20.37 13.2222C20.1742 13.4891 19.9183 13.7061 19.6231 13.8556C19.3278 14.0052 19.0015 14.0832 18.6706 14.0832C18.3396 14.0832 18.0133 14.0052 17.718 13.8556C17.4228 13.7061 17.1669 13.4891 16.9711 13.2222L16.3333 12.3511V11.2L15.5556 4.66667H19.0167L21 11.2V12.3511Z" fill="#465267"/>
</svg>
